<?xml version="1.0" ?><!DOCTYPE svg  PUBLIC '-//W3C//DTD SVG 1.1//EN'  'http://www.w3.org/Graphics/SVG/1.1/DTD/svg11.dtd'><svg enable-background="new 0 0 512 512" id="Layer_1" version="1.1" viewBox="0 0 512 512" xml:space="preserve" xmlns="http://www.w3.org/2000/svg" xmlns:xlink="http://www.w3.org/1999/xlink"><g><path d="M256.9,6.1c137,0.3,249.4,111.5,248.6,252.4c-0.7,138.6-112.3,250.8-251.8,249.2   C119,506.2,7.6,396.1,8.5,255.2C9.3,116.8,120.1,6.6,256.9,6.1z M256.9,488.1c124.5,0.4,227.7-100.9,229-228.5   c1.3-131.2-103.5-232.8-226.8-233.8c-126.1-1-230.3,101.1-231,229.1C27.5,384.5,129.6,488.1,256.9,488.1z" fill="#ffff "/><path d="M124.1,244.8c-7.6-5.9-14.1-11.9-18.8-19.3c-15-23.5-16.6-47.9-5-73.2c1.9-4.1,3.3-3.5,5.7-0.6   c21.6,25.4,48,44.5,78.9,57.2c18.1,7.5,36.8,12.5,56.4,14.1c3.7,0.3,8.6,2.9,10.9,0.1c1.6-2-0.7-6.9-0.8-10.5   c-0.9-23.3,6.7-43.4,24-59.1c25.8-23.5,63.2-25.5,91.7-5.5c2.2,1.5,4.6,2.9,6.2,5c3.3,4.2,7.1,4.4,11.9,3   c11.9-3.3,23.4-7.6,34.3-13.5c1-0.5,2.1-0.9,4.4-1.8c-5.6,16.9-15.7,28.8-29,39c2-0.2,3.9-0.4,5.9-0.7c2-0.3,3.9-0.7,5.9-1.2   c7.4-1.8,14.8-4,22-6.7c1.1-0.4,2.4-2,3.5-0.4c0.7,1.1-0.7,2-1.3,3c-8.3,11.4-18,21.4-29.2,29.9c-2.5,1.9-3.6,3.8-3.5,7   c0.5,51-15,96.7-46.4,136.7c-25.6,32.7-58.5,55.4-98.5,67.4c-23,6.9-46.6,9.9-70.5,9c-35.4-1.3-68.5-11.1-99-29.2   c-1.3-0.8-2.5-1.6-5-3.3c20.1,1.8,38.6,0.6,56.7-4.6c18-5.2,34.6-13.2,50.1-25.4c-8-1.3-15.2-2.2-22.1-4.7   c-20.8-7.5-35-21.8-43.8-41.8c-1.5-3.4-1.7-4.8,3.2-4.1c8.5,1.2,17.2,0.9,26.6-1.7c-5.9-2.9-11.6-3.8-16.6-6.5   c-24.6-13.2-37.9-33.7-40.4-61.3c-0.4-4.2,1.1-4.5,4.4-2.8c6.1,3.1,12.7,4.9,19.5,6.1C118.4,245,120.8,245.2,124.1,244.8z" fill="#ffff"/></g></svg>